<mxfile host="app.diagrams.net" agent="Mozilla/5.0 (Windows NT 10.0; Win64; x64) AppleWebKit/537.36 (KHTML, like Gecko) Chrome/136.0.0.0 Safari/537.36" version="26.2.13">
  <diagram name="Page-1" id="LBXxWG8O-JbTWxaYB5U9">
    <mxGraphModel dx="1305" dy="638" grid="1" gridSize="10" guides="1" tooltips="1" connect="1" arrows="1" fold="1" page="1" pageScale="1" pageWidth="850" pageHeight="1100" math="0" shadow="0">
      <root>
        <mxCell id="0" />
        <mxCell id="1" parent="0" />
        <mxCell id="kAXso1rb1zHKa6fLyAWG-10" value="" style="rounded=0;whiteSpace=wrap;html=1;" vertex="1" parent="1">
          <mxGeometry x="370" y="240" width="120" height="60" as="geometry" />
        </mxCell>
        <mxCell id="kAXso1rb1zHKa6fLyAWG-11" value="" style="rounded=0;whiteSpace=wrap;html=1;" vertex="1" parent="1">
          <mxGeometry x="180" y="50" width="630" height="410" as="geometry" />
        </mxCell>
        <mxCell id="kAXso1rb1zHKa6fLyAWG-14" value="Облачни микроуслуги" style="verticalLabelPosition=bottom;html=1;verticalAlign=top;align=center;strokeColor=none;fillColor=#00BEF2;shape=mxgraph.azure.cloud_service;" vertex="1" parent="1">
          <mxGeometry x="200" y="60" width="100" height="70" as="geometry" />
        </mxCell>
        <mxCell id="kAXso1rb1zHKa6fLyAWG-15" value="Мобилно приложение" style="verticalLabelPosition=bottom;html=1;verticalAlign=top;align=center;strokeColor=none;fillColor=#00BEF2;shape=mxgraph.azure.mobile_services;pointerEvents=1;" vertex="1" parent="1">
          <mxGeometry x="225" y="160" width="50" height="70" as="geometry" />
        </mxCell>
        <mxCell id="kAXso1rb1zHKa6fLyAWG-16" value="Уеб приложение" style="image;aspect=fixed;html=1;points=[];align=center;fontSize=12;image=img/lib/azure2/app_services/App_Service_Domains.svg;" vertex="1" parent="1">
          <mxGeometry x="217.5" y="270" width="65" height="52" as="geometry" />
        </mxCell>
        <mxCell id="kAXso1rb1zHKa6fLyAWG-18" value="" style="image;aspect=fixed;html=1;points=[];align=center;fontSize=12;image=img/lib/azure2/devops/Application_Insights.svg;" vertex="1" parent="1">
          <mxGeometry x="540" y="160" width="44" height="63" as="geometry" />
        </mxCell>
        <mxCell id="kAXso1rb1zHKa6fLyAWG-19" value="Бази от данни" style="verticalLabelPosition=bottom;html=1;verticalAlign=top;align=center;strokeColor=none;fillColor=#00BEF2;shape=mxgraph.azure.sql_database_sql_azure;" vertex="1" parent="1">
          <mxGeometry x="223.13" y="360" width="53.75" height="60" as="geometry" />
        </mxCell>
        <mxCell id="kAXso1rb1zHKa6fLyAWG-23" value="&lt;div&gt;&lt;br&gt;&lt;/div&gt;&lt;div&gt;&lt;br&gt;&lt;/div&gt;&lt;div&gt;&lt;br&gt;&lt;/div&gt;&lt;div&gt;&lt;br&gt;&lt;/div&gt;&lt;div&gt;&lt;br&gt;&lt;/div&gt;&lt;div&gt;&lt;br&gt;&lt;/div&gt;&lt;div&gt;&lt;br&gt;&lt;/div&gt;&lt;div&gt;&lt;br&gt;&lt;/div&gt;&lt;div&gt;&lt;br&gt;&lt;/div&gt;&lt;div&gt;Azure Monitor&lt;/div&gt;" style="ellipse;shape=cloud;whiteSpace=wrap;html=1;" vertex="1" parent="1">
          <mxGeometry x="420" y="200" width="170" height="110" as="geometry" />
        </mxCell>
        <mxCell id="kAXso1rb1zHKa6fLyAWG-24" value="" style="image;aspect=fixed;html=1;points=[];align=center;fontSize=12;image=img/lib/azure2/other/Azure_Monitor_Dashboard.svg;" vertex="1" parent="1">
          <mxGeometry x="480" y="229.99999999999997" width="68" height="63.2" as="geometry" />
        </mxCell>
        <mxCell id="kAXso1rb1zHKa6fLyAWG-25" style="edgeStyle=orthogonalEdgeStyle;rounded=0;orthogonalLoop=1;jettySize=auto;html=1;entryX=0.426;entryY=0.031;entryDx=0;entryDy=0;entryPerimeter=0;" edge="1" parent="1" source="kAXso1rb1zHKa6fLyAWG-14" target="kAXso1rb1zHKa6fLyAWG-23">
          <mxGeometry relative="1" as="geometry" />
        </mxCell>
        <mxCell id="kAXso1rb1zHKa6fLyAWG-26" style="edgeStyle=orthogonalEdgeStyle;rounded=0;orthogonalLoop=1;jettySize=auto;html=1;entryX=0.07;entryY=0.4;entryDx=0;entryDy=0;entryPerimeter=0;" edge="1" parent="1" source="kAXso1rb1zHKa6fLyAWG-15" target="kAXso1rb1zHKa6fLyAWG-23">
          <mxGeometry relative="1" as="geometry" />
        </mxCell>
        <mxCell id="kAXso1rb1zHKa6fLyAWG-27" style="edgeStyle=orthogonalEdgeStyle;rounded=0;orthogonalLoop=1;jettySize=auto;html=1;entryX=0.111;entryY=0.547;entryDx=0;entryDy=0;entryPerimeter=0;" edge="1" parent="1" source="kAXso1rb1zHKa6fLyAWG-16" target="kAXso1rb1zHKa6fLyAWG-23">
          <mxGeometry relative="1" as="geometry" />
        </mxCell>
        <mxCell id="kAXso1rb1zHKa6fLyAWG-28" style="edgeStyle=orthogonalEdgeStyle;rounded=0;orthogonalLoop=1;jettySize=auto;html=1;entryX=0.13;entryY=0.77;entryDx=0;entryDy=0;entryPerimeter=0;" edge="1" parent="1" source="kAXso1rb1zHKa6fLyAWG-19" target="kAXso1rb1zHKa6fLyAWG-23">
          <mxGeometry relative="1" as="geometry" />
        </mxCell>
        <mxCell id="kAXso1rb1zHKa6fLyAWG-30" value="Системата за &#xa;&#xa;предупреждения" style="shape=mxgraph.sap.icon;labelPosition=center;verticalLabelPosition=bottom;align=center;verticalAlign=top;strokeWidth=1;strokeColor=#D5DADD;fillColor=#EDEFF0;gradientColor=#FCFCFC;gradientDirection=west;aspect=fixed;SAPIcon=SAP_Alert_Notification_service_for_SAP_BTP" vertex="1" parent="1">
          <mxGeometry x="620" y="180" width="50" height="50" as="geometry" />
        </mxCell>
        <mxCell id="kAXso1rb1zHKa6fLyAWG-31" value="ИТ специалисти" style="verticalLabelPosition=bottom;html=1;verticalAlign=top;align=center;strokeColor=none;fillColor=#00BEF2;shape=mxgraph.azure.user;" vertex="1" parent="1">
          <mxGeometry x="720" y="130" width="47.5" height="50" as="geometry" />
        </mxCell>
        <mxCell id="kAXso1rb1zHKa6fLyAWG-34" value="" style="endArrow=none;html=1;rounded=0;exitX=0.875;exitY=0.5;exitDx=0;exitDy=0;exitPerimeter=0;" edge="1" parent="1">
          <mxGeometry width="50" height="50" relative="1" as="geometry">
            <mxPoint x="570" y="254.87" as="sourcePoint" />
            <mxPoint x="750" y="255" as="targetPoint" />
          </mxGeometry>
        </mxCell>
        <mxCell id="kAXso1rb1zHKa6fLyAWG-35" value="" style="endArrow=classic;html=1;rounded=0;entryX=0.905;entryY=0.39;entryDx=0;entryDy=0;entryPerimeter=0;" edge="1" parent="1" target="kAXso1rb1zHKa6fLyAWG-11">
          <mxGeometry width="50" height="50" relative="1" as="geometry">
            <mxPoint x="750" y="260" as="sourcePoint" />
            <mxPoint x="753.6899999999999" y="210" as="targetPoint" />
          </mxGeometry>
        </mxCell>
        <mxCell id="kAXso1rb1zHKa6fLyAWG-36" value="" style="endArrow=classic;html=1;rounded=0;" edge="1" parent="1">
          <mxGeometry width="50" height="50" relative="1" as="geometry">
            <mxPoint x="750" y="243.2" as="sourcePoint" />
            <mxPoint x="750" y="293.2" as="targetPoint" />
          </mxGeometry>
        </mxCell>
        <mxCell id="kAXso1rb1zHKa6fLyAWG-37" value="Бизнес експерти" style="verticalLabelPosition=bottom;html=1;verticalAlign=top;align=center;strokeColor=none;fillColor=#00BEF2;shape=mxgraph.azure.user;" vertex="1" parent="1">
          <mxGeometry x="720" y="310" width="47.5" height="50" as="geometry" />
        </mxCell>
      </root>
    </mxGraphModel>
  </diagram>
</mxfile>
